<?xml version="1.0" standalone="no"?><!DOCTYPE svg PUBLIC "-//W3C//DTD SVG 1.1//EN" "http://www.w3.org/Graphics/SVG/1.1/DTD/svg11.dtd"><svg t="1610521084193" class="icon" viewBox="0 0 1024 1024" version="1.1" xmlns="http://www.w3.org/2000/svg" p-id="3263" xmlns:xlink="http://www.w3.org/1999/xlink" width="200" height="200"><defs><style type="text/css"></style></defs><path d="M969.946 245.616l-65.37 656.418H119.424L66.758 258.32 512 507.604z" fill="#F2F2F2" p-id="3264"></path><path d="M947.772 121.966L512 531.318 76.228 121.966H512z" fill="#F2F2F2" p-id="3265"></path><path d="M119.424 310.986v591.048H48.278C21.624 902.034 0 880.412 0 853.756V223.934l78 2.126 41.424 84.926z" fill="#F14336" p-id="3266"></path><path d="M1024 223.934v629.824c0 26.654-21.624 48.278-48.304 48.278h-71.12V310.986l39.384-93.05 80.04 5.998z" fill="#D32E2A" p-id="3267"></path><path d="M1024 170.244v53.69l-119.424 87.052L512 597.122 119.424 310.986 0 223.934V170.244c0-26.654 21.624-48.278 48.278-48.278h27.95L512 439.584 947.772 121.966h27.924c26.68 0 48.304 21.622 48.304 48.278z" fill="#F14336" p-id="3268"></path><path d="M119.424 310.986L0 292.47v-68.536z" fill="#D32E2A" p-id="3269"></path></svg>